<svg width="276" height="276" viewBox="0 0 276 276" fill="none" xmlns="http://www.w3.org/2000/svg">
<path d="M16.4672 188.009H0V236.586H16.4672V188.009Z" fill="white"/>
<path d="M66.4763 236.586H101.057V223.755H81.8454V217.162H96.3929V206.662H81.8454V200.703H99.2316V188.009H66.4763V236.586V236.586Z" fill="white"/>
<path d="M134.951 236.586H154.531L137.01 211.062L152.585 188.009H133.991L126.649 200.77L118.965 188.009H99.2725L115.74 211.268L93.7379 243.356C93.7379 243.356 104.652 237.516 118.663 235.23C118.748 235.311 126.169 222.383 126.169 222.383L134.951 236.586V236.586Z" fill="white"/>
<path d="M170.973 188.009H154.506V236.586H170.973V188.009Z" fill="white"/>
<path d="M230.459 236.586H245.965L245.279 213.395H245.553L254.262 228.845L259.002 236.586H275.674V188.009H260.168L260.854 212.64H260.579L246.72 188.009H230.459V236.586Z" fill="white"/>
<path d="M54.8123 211.131C56.962 210.307 58.6892 209.05 59.9927 207.357C61.2963 205.666 61.9481 203.515 61.9481 200.908C61.9481 198.118 61.3307 195.864 60.0954 194.149C58.8607 192.434 57.3051 191.13 55.4297 190.238C53.5537 189.346 51.5074 188.753 49.2888 188.454C47.0698 188.157 44.9773 188.009 43.0109 188.009H23.0449V236.586H45.0695C47.4473 236.586 49.7691 236.346 52.0337 235.866C54.2977 235.385 56.3102 234.585 58.0713 233.464C59.8317 232.344 61.2502 230.88 62.3256 229.073C63.3999 227.266 63.9379 225.036 63.9379 222.383C63.9379 220.874 63.6858 219.501 63.1834 218.266C62.6792 217.031 61.993 215.945 61.1248 215.008C60.2553 214.07 59.2721 213.292 58.1745 212.675C57.0764 212.057 55.9554 211.611 54.8123 211.337V211.131V211.131ZM42.4624 217.169C42.9648 217.169 43.5022 217.215 44.0746 217.306C44.6459 217.398 45.1833 217.57 45.6868 217.821C46.1898 218.072 46.6135 218.404 46.956 218.816C47.2991 219.227 47.4706 219.753 47.4706 220.393C47.4706 221.491 47.0698 222.326 46.2704 222.898C45.4692 223.47 44.4282 223.755 43.148 223.755H38.2769V217.169H42.4624V217.169ZM42.3247 200.702C43.6049 200.702 44.6342 200.931 45.4126 201.388C46.1898 201.845 46.579 202.532 46.579 203.446C46.579 204.544 46.212 205.356 45.4809 205.882C44.7491 206.408 43.8109 206.671 42.6678 206.671H38.2769V200.702H42.3247V200.702Z" fill="white"/>
<path d="M175.775 222.657C177.147 225.86 179.034 228.593 181.435 230.857C183.836 233.121 186.684 234.871 189.977 236.105C193.271 237.341 196.838 237.958 200.681 237.958C204.523 237.958 208.091 237.341 211.385 236.105C214.678 234.871 217.536 233.121 219.961 230.857C222.385 228.593 224.284 225.86 225.655 222.657C227.028 219.456 227.714 215.911 227.714 212.023C227.714 208.136 227.028 204.625 225.655 201.491C224.284 198.358 222.385 195.693 219.961 193.497C217.536 191.302 214.678 189.61 211.385 188.42C208.091 187.231 204.523 186.636 200.681 186.636C196.838 186.636 193.271 187.231 189.977 188.42C186.684 189.61 183.836 191.302 181.435 193.497C179.034 195.693 177.147 198.358 175.775 201.491C174.402 204.625 173.716 208.136 173.716 212.023C173.716 215.911 174.402 219.456 175.775 222.657ZM191.796 207.512C192.276 206.212 192.938 205.121 193.785 204.235C194.631 203.35 195.648 202.662 196.838 202.168C198.027 201.675 199.308 201.434 200.681 201.446C202.053 201.457 203.322 201.719 204.489 202.232C205.655 202.746 206.673 203.451 207.542 204.35C208.41 205.249 209.085 206.353 209.566 207.661C210.047 208.968 210.286 210.4 210.286 211.955C210.286 213.556 210.047 215.018 209.566 216.34C209.085 217.663 208.41 218.8 207.542 219.754C206.673 220.707 205.655 221.442 204.489 221.958C203.322 222.475 202.053 222.727 200.681 222.715C199.308 222.704 198.027 222.43 196.838 221.894C195.648 221.359 194.631 220.606 193.785 219.639C192.938 218.671 192.276 217.523 191.796 216.191C191.315 214.862 191.075 213.396 191.075 211.794C191.075 210.24 191.315 208.812 191.796 207.512Z" fill="white"/>
<path fill-rule="evenodd" clip-rule="evenodd" d="M200.767 57.0462L251.372 56.9966L226.112 13.2457L200.767 57.0462V57.0462Z" fill="white"/>
<path fill-rule="evenodd" clip-rule="evenodd" d="M200.767 62.5743L226.112 106.375L251.372 62.6234L200.767 62.5743V62.5743Z" fill="white"/>
<path fill-rule="evenodd" clip-rule="evenodd" d="M195.909 54.4216L221.168 10.572H170.649L195.909 54.4216Z" fill="white"/>
<path fill-rule="evenodd" clip-rule="evenodd" d="M74.908 57.0462L24.3031 56.9966L49.5626 13.2457L74.908 57.0462Z" fill="white"/>
<path fill-rule="evenodd" clip-rule="evenodd" d="M74.908 62.5743L49.5626 106.375L24.3031 62.6234L74.908 62.5743V62.5743Z" fill="white"/>
<path fill-rule="evenodd" clip-rule="evenodd" d="M79.7659 54.4216L54.5064 10.572H105.025L79.7659 54.4216Z" fill="white"/>
<path fill-rule="evenodd" clip-rule="evenodd" d="M137.837 97.3585L143.58 95.5357L139.773 48.3216L144.408 50.4444L165.885 13.2457L191.23 57.0462L158.751 57.0147L185.169 69.1149L150.634 93.2973L173.12 86.1598L163.072 135.07L150.004 141.081L150.003 152.275L137.837 146.679L125.671 152.275L125.669 141.081L112.602 135.07L102.554 86.1598L125.04 93.2973L90.5047 69.1149L116.923 57.0147L84.4444 57.0462L109.789 13.2457L131.266 50.4444L135.901 48.3216L132.094 95.5357L137.837 97.3585V97.3585Z" fill="white"/>
</svg>
