<svg width="228" height="143" viewBox="0 0 228 143" fill="none" xmlns="http://www.w3.org/2000/svg">
<path fill-rule="evenodd" clip-rule="evenodd" d="M176.767 47.0462L227.372 46.9966L202.112 3.24567L176.767 47.0462V47.0462Z" fill="#040204"/>
<path fill-rule="evenodd" clip-rule="evenodd" d="M176.767 52.5743L202.112 96.3749L227.372 52.6234L176.767 52.5743V52.5743Z" fill="#040204"/>
<path fill-rule="evenodd" clip-rule="evenodd" d="M171.909 44.4216L197.168 0.571991H146.649L171.909 44.4216Z" fill="#040204"/>
<path fill-rule="evenodd" clip-rule="evenodd" d="M50.908 47.0462L0.303101 46.9966L25.5626 3.24567L50.908 47.0462Z" fill="#040204"/>
<path fill-rule="evenodd" clip-rule="evenodd" d="M50.908 52.5743L25.5626 96.3749L0.303101 52.6234L50.908 52.5743V52.5743Z" fill="#040204"/>
<path fill-rule="evenodd" clip-rule="evenodd" d="M55.7659 44.4216L30.5064 0.571991H81.0255L55.7659 44.4216Z" fill="#040204"/>
<path fill-rule="evenodd" clip-rule="evenodd" d="M113.837 87.3585L119.58 85.5357L115.773 38.3216L120.408 40.4444L141.885 3.24567L167.23 47.0462L134.751 47.0147L161.169 59.1149L126.634 83.2973L149.12 76.1598L139.072 125.07L126.004 131.081L126.003 142.275L113.837 136.679L101.671 142.275L101.669 131.081L88.6022 125.07L78.5542 76.1598L101.04 83.2973L66.5047 59.1149L92.9225 47.0147L60.4444 47.0462L85.7891 3.24567L107.266 40.4444L111.901 38.3216L108.094 85.5357L113.837 87.3585V87.3585Z" fill="#040204"/>
</svg>
