<svg width="276" height="58" viewBox="0 0 276 58" fill="none" xmlns="http://www.w3.org/2000/svg">
<path d="M16.4672 2.00854H0V50.5863H16.4672V2.00854Z" fill="#040204"/>
<path d="M66.4763 50.5857H101.057V37.7555H81.8454V31.1624H96.3929V20.6616H81.8454V14.7034H99.2316V2.00854H66.4763V50.5857V50.5857Z" fill="#040204"/>
<path d="M134.951 50.5857H154.531L137.01 25.0618L152.585 2.00854H133.991L126.649 14.7705L118.965 2.00854H99.2725L115.74 25.2678L93.7379 57.3562C93.7379 57.3562 104.652 51.5158 118.663 49.2296C118.748 49.3113 126.169 36.3831 126.169 36.3831L134.951 50.5857V50.5857Z" fill="#040204"/>
<path d="M170.973 2.00854H154.506V50.5863H170.973V2.00854Z" fill="#040204"/>
<path d="M230.459 50.5857H245.965L245.279 27.3947H245.553L254.262 42.8449L259.002 50.5857H275.674V2.00854H260.168L260.854 26.6402H260.579L246.72 2.00854H230.459V50.5857Z" fill="#040204"/>
<path d="M54.8123 25.1307C56.962 24.3074 58.6892 23.0499 59.9927 21.3571C61.2963 19.6655 61.9481 17.5147 61.9481 14.9076C61.9481 12.1178 61.3307 9.86434 60.0954 8.14882C58.8607 6.43389 57.3051 5.13031 55.4297 4.23813C53.5537 3.34594 51.5074 2.75252 49.2888 2.45435C47.0698 2.15734 44.9773 2.00854 43.0109 2.00854H23.0449V50.5857H45.0695C47.4473 50.5857 49.7691 50.3459 52.0337 49.8657C54.2977 49.3854 56.3102 48.5854 58.0713 47.4639C59.8317 46.3436 61.2502 44.8802 62.3256 43.073C63.3999 41.2665 63.9379 39.0363 63.9379 36.3831C63.9379 34.8735 63.6858 33.5011 63.1834 32.2664C62.6792 31.0311 61.993 29.9452 61.1248 29.0075C60.2553 28.0704 59.2721 27.292 58.1745 26.6747C57.0764 26.0567 55.9554 25.6109 54.8123 25.3367V25.1307V25.1307ZM42.4624 31.1688C42.9648 31.1688 43.5022 31.2149 44.0746 31.306C44.6459 31.3982 45.1833 31.5697 45.6868 31.8206C46.1898 32.0721 46.6135 32.4035 46.956 32.8155C47.2991 33.2269 47.4706 33.7532 47.4706 34.3933C47.4706 35.4909 47.0698 36.3265 46.2704 36.8977C45.4692 37.4702 44.4282 37.7555 43.148 37.7555H38.2769V31.1688H42.4624V31.1688ZM42.3247 14.7016C43.6049 14.7016 44.6342 14.9309 45.4126 15.3878C46.1898 15.8453 46.579 16.5315 46.579 17.4459C46.579 18.544 46.212 19.3563 45.4809 19.882C44.7491 20.4084 43.8109 20.6709 42.6678 20.6709H38.2769V14.7016H42.3247V14.7016Z" fill="#040204"/>
<path d="M175.775 36.6573C177.147 39.8596 179.034 42.5928 181.435 44.8568C183.836 47.1208 186.684 48.8708 189.977 50.1055C193.271 51.3408 196.838 51.9581 200.681 51.9581C204.523 51.9581 208.091 51.3408 211.385 50.1055C214.678 48.8708 217.536 47.1208 219.961 44.8568C222.385 42.5928 224.284 39.8596 225.655 36.6573C227.028 33.4562 227.714 29.9108 227.714 26.0229C227.714 22.1355 227.028 18.6245 225.655 15.4905C224.284 12.3582 222.385 9.69276 219.961 7.49701C217.536 5.30185 214.678 3.60966 211.385 2.41988C208.091 1.23127 204.523 0.636108 200.681 0.636108C196.838 0.636108 193.271 1.23127 189.977 2.41988C186.684 3.60966 183.836 5.30185 181.435 7.49701C179.034 9.69276 177.147 12.3582 175.775 15.4905C174.402 18.6245 173.716 22.1355 173.716 26.0229C173.716 29.9108 174.402 33.4562 175.775 36.6573ZM191.796 21.5123C192.276 20.2123 192.938 19.1205 193.785 18.2353C194.631 17.3501 195.648 16.6622 196.838 16.168C198.027 15.6755 199.308 15.4339 200.681 15.4456C202.053 15.4567 203.322 15.7192 204.489 16.2322C205.655 16.7456 206.673 17.4511 207.542 18.3503C208.41 19.2495 209.085 20.3529 209.566 21.6605C210.047 22.9682 210.286 24.4001 210.286 25.9546C210.286 27.5563 210.047 29.018 209.566 30.3397C209.085 31.6631 208.41 32.8003 207.542 33.7538C206.673 34.7072 205.655 35.4425 204.489 35.9583C203.322 36.4747 202.053 36.7268 200.681 36.7151C199.308 36.704 198.027 36.4303 196.838 35.8941C195.648 35.359 194.631 34.6063 193.785 33.6388C192.938 32.6714 192.276 31.523 191.796 30.1915C191.315 28.8616 191.075 27.3959 191.075 25.7941C191.075 24.2397 191.315 22.8118 191.796 21.5123Z" fill="#040204"/>
</svg>
